<?xml version="1.0" encoding="utf-8"?>
<!-- Generator: Adobe Illustrator 26.3.1, SVG Export Plug-In . SVG Version: 6.00 Build 0)  -->
<svg version="1.1" id="Capa_1" xmlns="http://www.w3.org/2000/svg" xmlns:xlink="http://www.w3.org/1999/xlink" x="0px" y="0px"
	 viewBox="0 0 15 15" style="enable-background:new 0 0 15 15;" xml:space="preserve">
<style type="text/css">
	.st0{fill:#FFFFFF;}
</style>
<g id="Capa_2_00000023997093909583878740000014485406322715757961_">
	<g id="Grid">
		<g id="Solid">
			<path class="st0" d="M7,11.7c0.3,0.3,0.8,0.3,1.1,0l0,0l2.9-3c0.3-0.3,0.3-0.8,0-1.1c-0.3-0.3-0.8-0.3-1.1,0L8.3,9.2V0.8
				C8.3,0.3,7.9,0,7.5,0S6.7,0.3,6.7,0.8v8.5L5.1,7.7C4.8,7.3,4.3,7.3,4,7.6C3.7,7.9,3.7,8.4,4,8.7L7,11.7z"/>
			<path class="st0" d="M14.2,6.7c-0.4,0-0.8,0.4-0.8,0.8v5.9H1.5V7.5c0-0.4-0.3-0.8-0.8-0.8C0.3,6.7,0,7.1,0,7.5v6.2
				C0,14.4,0.6,15,1.3,15h12.4c0.7,0,1.3-0.6,1.3-1.3V7.5C15,7.1,14.7,6.7,14.2,6.7L14.2,6.7z"/>
		</g>
	</g>
</g>
</svg>
