<svg xmlns="http://www.w3.org/2000/svg" viewBox="0 0 131.06 21.79"><defs><style>.cls-1{font-size:10px;fill:#1d1d1d;font-family:Gotham-Book, Gotham;}.cls-2{letter-spacing:-0.01em;}.cls-3{letter-spacing:-0.02em;}.cls-4{letter-spacing:-0.02em;}.cls-5{letter-spacing:-0.03em;}.cls-6{fill:#469e82;}.cls-6,.cls-7{fill-rule:evenodd;}.cls-7{fill:#ffc244;}</style></defs><g id="Capa_2" data-name="Capa 2"><g id="Grid"><text class="cls-1" transform="translate(0 19.09)"><tspan class="cls-2">P</tspan><tspan class="cls-3" x="6.63" y="0">ow</tspan><tspan x="21.2" y="0">e</tspan><tspan class="cls-4" x="27.12" y="0">r</tspan><tspan x="30.95" y="0">ed </tspan><tspan class="cls-5" x="46.51" y="0">b</tspan><tspan x="52.9" y="0">y</tspan></text><g id="Desktop"><g id="LogoB2B"><g id="logo"><path id="Fill-1" class="cls-6" d="M64.73,14.18v0a7.55,7.55,0,0,1,7.64-7.65,8,8,0,0,1,5,1.5,1.3,1.3,0,0,1-.76,2.35,1.34,1.34,0,0,1-.8-.3,5.62,5.62,0,0,0-3.6-1.16,5,5,0,0,0-4.8,5.22v0a4.94,4.94,0,0,0,5,5.29,6,6,0,0,0,3.58-1.12V15.53H73.15a1.13,1.13,0,1,1,0-2.26h4.12a1.29,1.29,0,0,1,1.31,1.31v4a1.8,1.8,0,0,1-.9,1.65,9.41,9.41,0,0,1-5.27,1.61,7.35,7.35,0,0,1-7.68-7.61"/><path id="Fill-3" class="cls-6" d="M80.92,7.26A1.26,1.26,0,0,1,82.18,6a1.28,1.28,0,0,1,1.3,1.27V20.37a1.27,1.27,0,0,1-1.3,1.27,1.26,1.26,0,0,1-1.26-1.27Z"/><path id="Fill-5" class="cls-6" d="M94.8,16v0a3.45,3.45,0,0,0-3.42-3.59A3.35,3.35,0,0,0,88,15.93v0a3.44,3.44,0,0,0,3.4,3.58A3.35,3.35,0,0,0,94.8,16m-9.34,0v0a6,6,0,0,1,11.9,0v0a5.83,5.83,0,0,1-6,5.82A5.77,5.77,0,0,1,85.46,16"/><path id="Fill-7" class="cls-6" d="M103.75,21.75h-.12a1.59,1.59,0,0,1-1.46-1.13L98.44,12.1a2.08,2.08,0,0,1-.14-.63,1.29,1.29,0,0,1,2.53-.3l2.88,7.4,2.92-7.44a1.28,1.28,0,0,1,1.2-.89,1.22,1.22,0,0,1,1.25,1.23,1.4,1.4,0,0,1-.15.61l-3.72,8.54a1.61,1.61,0,0,1-1.46,1.13"/><path id="Fill-9" class="cls-6" d="M119.36,16v0a3.45,3.45,0,0,0-3.42-3.59,3.35,3.35,0,0,0-3.37,3.55v0A3.45,3.45,0,0,0,116,19.55,3.35,3.35,0,0,0,119.36,16M110,16v0a6,6,0,0,1,11.91,0v0a5.84,5.84,0,0,1-6,5.82A5.78,5.78,0,0,1,110,16"/><g id="Group-13"><path id="Fill-11" class="cls-7" d="M128.11,6.51,128,6.7,126,9.42l-1.93-2.71-.14-.2a2.55,2.55,0,1,1,4.14,0M126,0a5,5,0,0,0-5,5A5,5,0,0,0,122,8l.14.19,2.61,3.69a1.23,1.23,0,0,0,1,.52h.62a1.23,1.23,0,0,0,1-.52L130,8.14l.14-.19A5,5,0,0,0,131.06,5a5,5,0,0,0-5-5"/></g><path id="Fill-14" class="cls-7" d="M124.63,14.62h0a1.4,1.4,0,0,1,2.8,0h0A1.38,1.38,0,0,1,126,16a1.36,1.36,0,0,1-1.39-1.36"/></g></g></g></g></g></svg>