<svg xmlns="http://www.w3.org/2000/svg" viewBox="0 0 189.33 62.19"><defs><style>.cls-1{fill:#469e82;fill-rule:evenodd;}</style></defs><g id="Capa_2" data-name="Capa 2"><g id="Grid"><g id="Desktop"><g id="LogoB2B"><g id="logo"><path id="Fill-1" class="cls-1" d="M0,40.46v-.12A21.53,21.53,0,0,1,21.79,18.49c6.34,0,10.57,1.51,14.43,4.29a3.77,3.77,0,0,1,1.51,3,3.69,3.69,0,0,1-3.68,3.68,3.94,3.94,0,0,1-2.3-.84,16.07,16.07,0,0,0-10.26-3.32c-7.79,0-13.7,6.82-13.7,14.91v.12c0,8.69,5.73,15.09,14.36,15.09a17.28,17.28,0,0,0,10.21-3.2V44.32H24a3.24,3.24,0,0,1-3.32-3.2A3.3,3.3,0,0,1,24,37.86H35.8a3.69,3.69,0,0,1,3.74,3.75V52.9a5.12,5.12,0,0,1-2.6,4.7,26.86,26.86,0,0,1-15,4.59C8.69,62.19,0,52.77,0,40.46"/><path id="Fill-3" class="cls-1" d="M46.19,20.72a3.59,3.59,0,0,1,3.62-3.62,3.65,3.65,0,0,1,3.69,3.62V58.15a3.66,3.66,0,0,1-7.31,0Z"/><path id="Fill-5" class="cls-1" d="M85.83,45.71v-.12c0-5.61-4-10.26-9.77-10.26s-9.6,4.59-9.6,10.14v.12c0,5.55,4,10.2,9.72,10.2,5.91,0,9.65-4.59,9.65-10.08m-26.67,0v-.12a16.66,16.66,0,0,1,17-16.66c9.78,0,17,7.42,17,16.54v.12a16.66,16.66,0,0,1-17.08,16.6,16.48,16.48,0,0,1-16.9-16.48"/><path id="Fill-7" class="cls-1" d="M111.37,62.07H111c-2,0-3.32-1.27-4.16-3.2L96.22,34.54a5.65,5.65,0,0,1-.42-1.8,3.7,3.7,0,0,1,7.24-.85L111.25,53l8.33-21.24A3.64,3.64,0,0,1,123,29.23a3.48,3.48,0,0,1,3.56,3.51,4.41,4.41,0,0,1-.42,1.75L115.54,58.87c-.85,1.87-2.17,3.2-4.17,3.2"/><path id="Fill-9" class="cls-1" d="M155.93,45.71v-.12c0-5.61-4.05-10.26-9.78-10.26s-9.6,4.59-9.6,10.14v.12c0,5.55,4,10.2,9.72,10.2,5.91,0,9.66-4.59,9.66-10.08m-26.68,0v-.12a16.66,16.66,0,0,1,17-16.66c9.78,0,17,7.42,17,16.54v.12a16.66,16.66,0,0,1-17.08,16.6,16.48,16.48,0,0,1-16.9-16.48"/><g id="Group-13"><path id="Fill-11" class="cls-1" d="M180.89,18.58l-.39.56L175,26.9l-5.5-7.75-.4-.56a7.28,7.28,0,1,1,11.8,0M175,0a14.33,14.33,0,0,0-11.64,22.7l.38.54,7.47,10.53a3.48,3.48,0,0,0,2.9,1.49h1.78a3.48,3.48,0,0,0,2.9-1.49l7.47-10.53.38-.54a14.21,14.21,0,0,0,2.7-8.36A14.36,14.36,0,0,0,175,0"/></g><path id="Fill-14" class="cls-1" d="M171,41.73v0a3.92,3.92,0,0,1,4-3.92,3.88,3.88,0,0,1,4,3.89v0a3.91,3.91,0,0,1-4,3.9,3.87,3.87,0,0,1-4-3.87"/></g></g></g></g></g></svg>