<svg xmlns="http://www.w3.org/2000/svg" viewBox="0 0 20.1 20.33"><defs><style>.cls-1{fill:#fff;}</style></defs><g id="Capa_2" data-name="Capa 2"><g id="Grid"><path id="a" class="cls-1" d="M14,10.89H10.71v2.49a21.07,21.07,0,0,1,2.94.29A17.07,17.07,0,0,0,14,10.89Zm0-1.45a17.43,17.43,0,0,0-.33-2.78A20.91,20.91,0,0,1,10.71,7V9.44ZM6.11,10.89a17,17,0,0,0,.34,2.78,20.85,20.85,0,0,1,2.82-.29V10.89Zm0-1.45H9.27V7a22.08,22.08,0,0,1-2.82-.28,17.19,17.19,0,0,0-.34,2.77ZM1.47,10.89a8.65,8.65,0,0,0,1.27,3.89A12.38,12.38,0,0,1,5,14a17.62,17.62,0,0,1-.36-3.07Zm0-1.45H4.68A18.44,18.44,0,0,1,5,6.37a12.6,12.6,0,0,1-2.3-.82A8.82,8.82,0,0,0,1.47,9.44Zm17.16,1.45H15.42A18.65,18.65,0,0,1,15.05,14a12.13,12.13,0,0,1,2.3.82A8.7,8.7,0,0,0,18.63,10.89Zm0-1.45a8.7,8.7,0,0,0-1.28-3.89,12.13,12.13,0,0,1-2.3.82,18.42,18.42,0,0,1,.37,3.07Zm-5.35,5.64a20.14,20.14,0,0,0-2.57-.25v3.91C11.73,18.33,12.67,17,13.28,15.08Zm-6.46,0c.58,1.82,1.47,3.14,2.45,3.61V14.84a20.12,20.12,0,0,0-2.45.24ZM3.63,16A8.64,8.64,0,0,0,6.7,18.19a11,11,0,0,1-1.3-2.82A11.83,11.83,0,0,0,3.63,16Zm12.84,0a11.29,11.29,0,0,0-1.78-.6,10.36,10.36,0,0,1-1.3,2.82A8.5,8.5,0,0,0,16.47,16ZM13.28,5.25c-.61-1.9-1.55-3.25-2.57-3.67V5.5a20.14,20.14,0,0,0,2.57-.25Zm-6.46,0a18.83,18.83,0,0,0,2.45.24V1.64c-1,.47-1.87,1.79-2.45,3.61Zm-5-.88A.63.63,0,0,1,2.06,4a10,10,0,0,1,8-4,10.17,10.17,0,0,1,.06,20.33H10a10.18,10.18,0,0,1-8.19-16Zm1.83,0A11.81,11.81,0,0,0,5.4,5,10.83,10.83,0,0,1,6.7,2.14,8.64,8.64,0,0,0,3.63,4.36Zm12.84,0a8.59,8.59,0,0,0-3.08-2.22A10.22,10.22,0,0,1,14.69,5,11.24,11.24,0,0,0,16.47,4.36Z"/></g></g></svg>