<svg xmlns="http://www.w3.org/2000/svg" viewBox="0 0 93.3 30.65"><defs><style>.cls-1{fill:#fff;}.cls-1,.cls-2{fill-rule:evenodd;}.cls-2{fill:#ffc244;}</style></defs><g id="Capa_2" data-name="Capa 2"><g id="Grid"><g id="Desktop"><g id="LogoB2B"><g id="logo"><path id="Fill-1" class="cls-1" d="M0,19.94v-.06A10.61,10.61,0,0,1,10.74,9.11a11.31,11.31,0,0,1,7.11,2.11,1.86,1.86,0,0,1,.74,1.49,1.82,1.82,0,0,1-1.81,1.82,1.88,1.88,0,0,1-1.13-.42,7.94,7.94,0,0,0-5.06-1.64c-3.84,0-6.75,3.36-6.75,7.35v.06c0,4.28,2.82,7.44,7.08,7.44a8.48,8.48,0,0,0,5-1.58v-3.9h-4.1a1.6,1.6,0,0,1-1.64-1.57,1.63,1.63,0,0,1,1.64-1.61h5.8a1.81,1.81,0,0,1,1.84,1.84v5.57a2.53,2.53,0,0,1-1.27,2.32,13.29,13.29,0,0,1-7.41,2.26A10.33,10.33,0,0,1,0,19.94"/><path id="Fill-3" class="cls-1" d="M22.76,10.21a1.8,1.8,0,0,1,3.6,0V28.65a1.8,1.8,0,0,1-3.6,0Z"/><path id="Fill-5" class="cls-1" d="M42.3,22.53v-.06a4.85,4.85,0,0,0-4.82-5.06,4.71,4.71,0,0,0-4.73,5v.06a4.84,4.84,0,0,0,4.79,5,4.71,4.71,0,0,0,4.76-5m-13.15,0v-.06a8.21,8.21,0,0,1,8.39-8.21,8.14,8.14,0,0,1,8.36,8.15v.06a8.21,8.21,0,0,1-8.42,8.18,8.12,8.12,0,0,1-8.33-8.12"/><path id="Fill-7" class="cls-1" d="M54.88,30.59h-.17A2.26,2.26,0,0,1,52.65,29L47.42,17a2.7,2.7,0,0,1-.21-.89,1.82,1.82,0,0,1,3.57-.41l4,10.4,4.1-10.46a1.79,1.79,0,0,1,1.7-1.25,1.71,1.71,0,0,1,1.75,1.72,2.08,2.08,0,0,1-.21.86L56.94,29a2.29,2.29,0,0,1-2.06,1.58"/><path id="Fill-9" class="cls-1" d="M76.84,22.53v-.06A4.85,4.85,0,0,0,72,17.41a4.72,4.72,0,0,0-4.73,5v.06a4.84,4.84,0,0,0,4.79,5,4.71,4.71,0,0,0,4.76-5m-13.15,0v-.06a8.38,8.38,0,0,1,16.75-.06v.06A8.21,8.21,0,0,1,72,30.65a8.12,8.12,0,0,1-8.33-8.12"/><g id="Group-13"><path id="Fill-11" class="cls-2" d="M89.15,9.15l-.2.28-2.71,3.83L83.53,9.44l-.2-.28a3.53,3.53,0,0,1-.68-2.09,3.59,3.59,0,1,1,7.17,0,3.53,3.53,0,0,1-.67,2.08M86.24,0A7.06,7.06,0,0,0,80.5,11.19l.19.26,3.68,5.19a1.72,1.72,0,0,0,1.43.74h.88a1.69,1.69,0,0,0,1.42-.74l3.68-5.19.19-.26A7.06,7.06,0,0,0,86.24,0"/></g><path id="Fill-14" class="cls-2" d="M84.25,20.56h0a2,2,0,0,1,3.93,0h0a2,2,0,0,1-3.93,0"/></g></g></g></g></g></svg>